<svg fill="none" xmlns="http://www.w3.org/2000/svg" viewBox="0 0 138 32">
  <path d="M35.757 20.8748a8.1206 8.1206 0 0 1-.3997 1.3946h-9.1802c.0506.7014.2851 1.2565.7034 1.6653.4183.4089 1.0449.6138 1.8798.6147a4.1963 4.1963 0 0 0 1.4507-.256 5.9928 5.9928 0 0 0 1.4974-.8453l2.2515 2.6666a9.144 9.144 0 0 1-2.4566 1.4987 9.0736 9.0736 0 0 1-5.9603.14 5.7141 5.7141 0 0 1-2.0729-1.2413 5.5456 5.5456 0 0 1-1.3043-1.9334 6.6295 6.6295 0 0 1-.4609-2.5333 8.407 8.407 0 0 1 .5755-3.0346 8.2998 8.2998 0 0 1 1.6626-2.676 8.4818 8.4818 0 0 1 2.6231-1.9067 7.9396 7.9396 0 0 1 3.4531-.7306c1.0231 0 1.9059.1582 2.6484.4746a4.9754 4.9754 0 0 1 1.7911 1.2255 4.9813 4.9813 0 0 1 1.0998 1.8719 6.8017 6.8017 0 0 1 .345 2.1639 7.5626 7.5626 0 0 1-.1412 1.4467l-.0053-.0053Zm-4.6427-3.0667c-.3064-.3511-.7838-.5262-1.4322-.5253a3.1597 3.1597 0 0 0-1.8557.6266c-.5871.4187-1.0263 1.0463-1.3176 1.8827h4.9385a2.3439 2.3439 0 0 0 .1332-.7427 1.8165 1.8165 0 0 0-.4609-1.2413h-.0053Zm16.45.7547a8.385 8.385 0 0 0-1.9317-1.076 5.41 5.41 0 0 0-1.9823-.42c-.7993 0-1.199.2666-1.199.8 0 .2386.1412.444.4223.6133.4822.2659.9826.4972 1.4974.692.4947.2053.9766.4231 1.4455.6533a5.854 5.854 0 0 1 1.2403.8067c.3547.3023.6459.6721.8566 1.088.2238.4666.3334.9799.3197 1.4973a4.9206 4.9206 0 0 1-.3703 1.8947 4.466 4.466 0 0 1-1.1324 1.588 5.4069 5.4069 0 0 1-1.8811 1.088 7.8553 7.8553 0 0 1-2.6085.4 11.1588 11.1588 0 0 1-3.7861-.6414 9.0144 9.0144 0 0 1-3.0481-1.7693l2.398-2.8413a7.2088 7.2088 0 0 0 2.2781 1.3826 6.6099 6.6099 0 0 0 2.3393.4814c.409 0 .7168-.0774.9206-.2307a.7294.7294 0 0 0 .3077-.6146c0-.2392-.1452-.448-.4356-.6267a10.2535 10.2535 0 0 0-1.4574-.6787c-.5462-.2222-1.0578-.4529-1.5347-.692a5.4884 5.4884 0 0 1-1.2417-.832 3.4917 3.4917 0 0 1-.8179-1.088 3.2775 3.2775 0 0 1-.2945-1.4346 4.6489 4.6489 0 0 1 .409-1.932 4.3996 4.3996 0 0 1 1.1764-1.5627 5.7807 5.7807 0 0 1 1.893-1.0373 7.913 7.913 0 0 1 2.5592-.384 9.8307 9.8307 0 0 1 3.4637.5893c1.0489.3929 1.8891.8454 2.5206 1.3574l-2.3287 2.9186.0026.0107Zm6.2934 9.2946h-4.8626l3.7116-13.8573h4.8598l-3.7088 13.852v.0053Zm18.0101-2.8427c-.1705.6152-.3411 1.1658-.5116 1.652-.1573.4548-.341.9-.5502 1.3334a7.1717 7.1717 0 0 1-.6395 1.0746 9.6973 9.6973 0 0 1-.754.9094 6.5681 6.5681 0 0 1-2.5312 1.5226c-.9902.3289-2.2105.4933-3.6609.4933a14.61 14.61 0 0 1-2.0076-.1413 17.3363 17.3363 0 0 1-1.9597-.384 14.6472 14.6472 0 0 1-1.8038-.588 8.8342 8.8342 0 0 1-1.5227-.7813l2.1755-3.0467a9.7607 9.7607 0 0 0 2.4579 1.0747 9.1103 9.1103 0 0 0 2.4566.3587 4.8014 4.8014 0 0 0 1.6626-.256 3.2946 3.2946 0 0 0 1.199-.768 3.6578 3.6578 0 0 0 .6661-.9334 6.9344 6.9344 0 0 0 .4862-1.2933l.0826-.308a7.2768 7.2768 0 0 1-1.9183 1.2547 5.6346 5.6346 0 0 1-2.2768.4346 5.5392 5.5392 0 0 1-1.8291-.3066 4.5992 4.5992 0 0 1-2.6871-2.4334 4.7543 4.7543 0 0 1-.4209-2.0479 8.746 8.746 0 0 1 .5488-3.0854 8.2123 8.2123 0 0 1 1.5361-2.5866 7.6089 7.6089 0 0 1 2.3153-1.7787 6.305 6.305 0 0 1 2.8643-.6666c1.0577 0 1.9237.2222 2.5978.6666a5.3858 5.3858 0 0 1 1.5986 1.5867l.5076-1.9707h4.8612l-2.9428 11.0093v.0053Zm-4.1445-6.8413c-.4094-.4097-.9721-.6146-1.6879-.6146a3.0527 3.0527 0 0 0-2.3154 1.0493 3.8397 3.8397 0 0 0-.6661 1.1013 3.4706 3.4706 0 0 0-.2425 1.28c0 .6498.2048 1.1662.6142 1.5494.4094.3831.9552.5751 1.6373.576a3.0055 3.0055 0 0 0 1.2922-.2814 3.549 3.549 0 0 0 1.0485-.7426 3.2704 3.2704 0 0 0 .6914-1.0667 3.3575 3.3575 0 0 0 .2424-1.2667 2.1507 2.1507 0 0 0-.6141-1.588v.004Zm21.9641.8574a16.6583 16.6583 0 0 1-.2945 1.2933l-1.9983 7.528h-4.8585l1.945-7.2467a4.256 4.256 0 0 0 .1146-.588 4.5076 4.5076 0 0 0 .0386-.5333c0-.4604-.1332-.8187-.3997-1.0747-.2664-.256-.6434-.384-1.1377-.384-.6829 0-1.2287.2174-1.6372.652-.4086.4347-.7234 1.0534-.9446 1.856l-1.9703 7.3227h-4.8599l3.7089-13.856h4.8612l-.4356 1.5867a7.6494 7.6494 0 0 1 1.7318-1.3187 4.4397 4.4397 0 0 1 2.2381-.576c1.2621 0 2.247.3716 2.9549 1.1147.7078.7431 1.0631 1.7542 1.0657 3.0333a6.6727 6.6727 0 0 1-.1145 1.1907h-.008Zm9.2468-6.2853h-5.0624l.9725-3.5853h5.0624l-.9725 3.5853Zm-4.1698 15.1066h-4.8599l3.7089-13.852h4.8612l-3.7102 13.852Zm15.3246-13.852-1.049 3.9173h-3.224l-1.176 4.3494a4.2393 4.2393 0 0 0-.133.8453c0 .5813.366.8715 1.099.8706a5.6317 5.6317 0 0 0 1.848-.3826l-1.074 4.0453a8.9073 8.9073 0 0 1-1.395.3547 8.5036 8.5036 0 0 1-1.465.1333c-1.416 0-2.469-.2902-3.16-.8707-.6913-.5804-1.0368-1.3826-1.0368-2.4066a5.9843 5.9843 0 0 1 .064-.8707c.0426-.2889.1065-.6044.1918-.9466l1.372-5.1214h-1.6384l1.0554-3.9173h1.637l.946-3.5079h4.861l-.946 3.5079h3.223Zm14.032 9.1533a8.596 8.596 0 0 1-1.713 2.58 8.1373 8.1373 0 0 1-2.585 1.792 7.8686 7.8686 0 0 1-3.236.6667 7.611 7.611 0 0 1-2.84-.5 6.4558 6.4558 0 0 1-2.132-1.3574 5.699 5.699 0 0 1-1.344-2.0346 6.9904 6.9904 0 0 1-.463-2.5667 7.706 7.706 0 0 1 .614-3.0213 8.0935 8.0935 0 0 1 1.72-2.5786 8.4534 8.4534 0 0 1 2.584-1.7787 8.2471 8.2471 0 0 1 6.075-.1627c.8.3042 1.53.7658 2.149 1.3574a5.7 5.7 0 0 1 1.343 2.0346c.311.8079.468 1.6674.461 2.5333a7.544 7.544 0 0 1-.628 3.0347l-.005.0013Zm-4.713-4.744a2.2631 2.2631 0 0 0-.788-.5338 2.2582 2.2582 0 0 0-.936-.1635 2.5457 2.5457 0 0 0-1.306.3493c-.395.2298-.74.5367-1.014.9027a4.4173 4.4173 0 0 0-.875 2.5933c0 .8089.222 1.4458.666 1.9107.444.4649 1.019.6973 1.724.6973.459.0041.91-.1166 1.306-.3493a3.4328 3.4328 0 0 0 1.013-.9027 4.418 4.418 0 0 0 .874-2.62c0-.792-.219-1.42-.658-1.884h-.006Zm17.21.4814h-.409c-1.332 0-2.428.384-3.288 1.152-.859.768-1.512 1.98-1.957 3.636l-1.125 4.1733h-4.86l3.709-13.852h4.861l-.742 2.7907a8.2264 8.2264 0 0 1 2.251-2.3173c.835-.5547 1.816-.7894 2.942-.704l-1.382 5.1213Z" fill="#535353"/>
  <path fill-rule="evenodd" clip-rule="evenodd" d="m54.8367 13.356 7.5736-6.3306-11.5675 2.8 4.9065.8026-.9126 2.728ZM22.351 15.8119c-.008.152-.02.3014-.036.4494-.028.256-.0639.5186-.1119.7893l-.0413.0453a6.0545 6.0545 0 0 1-1.0977 2.252 5.7653 5.7653 0 0 1-1.4655 1.3227c.5782-1.4254 1.2417-4.6667-3.5157-6.5427-3.513-1.3853-6.148-2.3213-8.2197-3.4346C3.415 8.1866 1.1276 4.64 3.3004 0c0 0-.6927 3.5733 6.0935 6.0813 6.1468 2.2667 13.3634 3.0573 12.9677 9.7333l-.0106-.0027Z" fill="#A537B5"/>
  <path fill-rule="evenodd" clip-rule="evenodd" d="m6.0513 13.0083-1.1856 4.38s-6.701-3.496-3.6969-12.9186c0 0-.8246 5.0667 4.8852 8.5333l-.0027.0053Z" fill="#A537B5"/>
  <path fill-rule="evenodd" clip-rule="evenodd" d="m4.2332 19.4516-.8313 2.872s-4.0978-3.7347-3.2985-8.724c0 0 .417 3.244 4.1298 5.8573v-.0053Z" fill="#A537B5"/>
  <path fill-rule="evenodd" clip-rule="evenodd" d="m11.8641 14.3998-1.1124 4.0894h2.8403c1.1252 0 2.0205-.2223 2.6857-.6667a2.1671 2.1671 0 0 0 .8459-1.0027c1.9717 1.3854 1.5987 2.58 1.4455 4.4a10.4413 10.4413 0 0 1-1.5614.5467l2.763 6.0426h-5.4753l-2.378-5.428H9.7166l-1.4655 5.428h-4.981l4.247-15.8306a18.7007 18.7007 0 0 0 4.347 2.4213Z" fill="#535353"/>
</svg>
